# Blender v2.78 (sub 0) OBJ File: ''
# www.blender.org
o Cube_Cube.001
v -0.100000 -0.100000 -0.000000
v 0.100000 0.100000 0.000000
v -0.100000 0.100000 0.000000
v 0.100000 0.100000 -0.700000
v -0.100000 -0.100000 -0.700000
v -0.100000 0.100000 -0.700000
v 0.100000 -0.100000 -0.000000
v 0.100000 -0.100000 -0.700000
v -0.100000 -0.200000 -0.700000
v 0.100000 -0.200000 -0.700000
v -0.100000 0.200000 -0.700000
v 0.100000 0.000000 -1.100000
v -0.100000 0.000000 -1.100000
v 0.100000 0.200000 -0.700000
vn 0.0000 -0.0000 1.0000
vn 0.0000 0.0000 -1.0000
vn 0.0000 1.0000 0.0000
vn -1.0000 0.0000 0.0000
vn 1.0000 0.0000 0.0000
vn 0.0000 -1.0000 -0.0000
vn 0.0000 0.8944 -0.4472
vn 0.0000 -0.8944 -0.4472
s 1
f 1//1 2//1 3//1
f 4//2 5//2 6//2
f 2//3 6//3 3//3
f 3//4 5//4 1//4
f 7//5 4//5 2//5
f 1//6 8//6 7//6
f 8//1 9//1 10//1
f 11//7 12//7 13//7
f 6//1 14//1 11//1
f 9//8 12//8 10//8
f 5//4 6//4 13//4
f 6//4 11//4 13//4
f 9//4 5//4 13//4
f 14//5 4//5 12//5
f 10//5 12//5 8//5
f 12//5 4//5 8//5
f 1//1 7//1 2//1
f 4//2 8//2 5//2
f 2//3 4//3 6//3
f 3//4 6//4 5//4
f 7//5 8//5 4//5
f 1//6 5//6 8//6
f 8//1 5//1 9//1
f 11//7 14//7 12//7
f 6//1 4//1 14//1
f 9//8 13//8 12//8
